<svg xmlns="http://www.w3.org/2000/svg" width="295" height="299" fill="none"><g filter="url(#a)"><rect width="114.385" height="114.385" x="183.605" fill="#fff" rx="57.192" shape-rendering="crispEdges" transform="rotate(15 183.605 0)"/><rect width="98.385" height="98.385" x="189.262" y="9.798" fill="#1A1A1A" rx="49.192" transform="rotate(15 189.262 9.798)"/><path fill="#F6F6F6" d="M199.072 63.818c-2.464 9.883 1.15 19.857 8.47 25.982l-3.774-35.606a25.641 25.641 0 0 0-4.696 9.624ZM241.215 72.984c.769-3.087.193-5.5-.343-7.4-.753-2.373-1.505-4.41-.992-6.468.573-2.295 2.846-3.998 5.298-3.386.111.027.213.067.319.1a25.64 25.64 0 0 0-15.228-10.759c-8.724-2.175-17.515.387-23.67 6.053.582.164 1.131.314 1.6.43 2.612.652 6.734 1.343 6.734 1.343 1.365.257 1.031 2.273-.353 2.097 0 0-1.393-.178-2.917-.474l2.349 29.314 9.551-15.026-1.233-11.63c-1.325-.414-2.559-.89-2.559-.89-1.326-.415-.655-2.433.671-2.018 0 0 4.044 1.345 6.498 1.957 2.611.65 6.734 1.342 6.734 1.342 1.367.256 1.032 2.273-.353 2.097 0 0-1.395-.18-2.917-.475l2.331 29.093 4.566-7.702c1.941-3.185 3.381-5.46 3.914-7.598Z"/><path fill="#F6F6F6" d="m223.937 72.335-12.92 19.902a25.734 25.734 0 0 0 15.445 3.428 2.283 2.283 0 0 1-.092-.388l-2.433-22.942ZM248.941 63.525a19.754 19.754 0 0 1-.472 2.61c-.632 2.533-1.815 5.264-4.129 8.47l-13.126 20.15c8.503-2.477 15.502-9.275 17.799-18.487a25.59 25.59 0 0 0-.072-12.743Z"/><path fill="#F6F6F6" d="M231.3 40.934c-16.049-4.001-32.363 5.8-36.365 21.85-4.002 16.052 5.801 32.364 21.851 36.366 16.049 4.002 32.365-5.799 36.367-21.85 4.001-16.05-5.803-32.364-21.853-36.366Zm-14.182 56.882c-15.314-3.818-24.667-19.385-20.848-34.7 3.818-15.313 19.383-24.665 34.698-20.847 15.313 3.818 24.665 19.383 20.847 34.697-3.818 15.315-19.383 24.668-34.697 20.85Z"/></g><g filter="url(#b)"><rect width="114.385" height="114.385" x="156.854" y="177.854" fill="#fff" rx="57.192" shape-rendering="crispEdges"/><rect width="98.385" height="98.385" x="159.61" y="191.727" fill="#E34F26" rx="49.192" transform="rotate(-6.488 159.61 191.727)"/><g clip-path="url(#c)"><path fill="#E9E9E0" d="m220.218 204.147-30.896 3.514c-.86.098-1.478.874-1.324 2.227l6.425 56.501c.042.367.818.985 1.679.888l42.661-4.852c.86-.098 1.478-.874 1.436-1.242l-5.087-44.735c-.084-.741-.21-.968-.405-1.124l-13.796-10.978a.945.945 0 0 0-.693-.199Z"/><path fill="#D9D7CA" d="m220.784 204.246 1.435 12.614 12.614-1.434-14.049-11.18Z"/><path fill="#EC6630" d="m238.763 262.425-42.662 4.852a1.567 1.567 0 0 1-1.734-1.38l-1.881-16.541 45.776-5.205 1.881 16.54c.098.86-.52 1.637-1.38 1.734Z"/><path fill="#fff" d="m204.623 252.207 1.22 10.727-1.747.198-.549-4.832-4.643.528.55 4.832-1.776.202-1.22-10.726 1.776-.202.534 4.701 4.643-.528-.535-4.701 1.747-.199ZM214.899 251.038l.135 1.194-3.201.364 1.084 9.533-1.761.2-1.084-9.533-3.202.364-.136-1.193 8.165-.929ZM225.116 249.876l1.776-.201 1.22 10.726-1.776.202-.839-7.38-1.723 6.24-1.543.176-3.095-5.692.839 7.379-1.775.202-1.22-10.726 1.775-.202 4.022 6.973 2.339-7.697ZM231.36 249.166l1.069 9.402 4.934-.561.151 1.325-6.71.763-1.22-10.727 1.776-.202Z"/><path fill="#EC6630" d="M207.523 223.16a1.07 1.07 0 0 0-1.506.172l-5.661 7.113a1.072 1.072 0 0 0 .172 1.506l7.113 5.661a1.07 1.07 0 0 0 1.506-.172 1.07 1.07 0 0 0-.172-1.505l-6.275-4.994 4.994-6.275a1.071 1.071 0 0 0-.171-1.506ZM227.411 227.369l-7.113-5.661a1.071 1.071 0 1 0-1.335 1.677l6.276 4.993-4.994 6.276a1.07 1.07 0 1 0 1.677 1.334l5.661-7.114a1.07 1.07 0 0 0-.172-1.505Z"/></g></g><g filter="url(#d)"><rect width="115.519" height="115.519" x="22.216" y="96.015" fill="#fff" rx="57.759" shape-rendering="crispEdges" transform="rotate(-9 22.216 96.015)"/><g clip-path="url(#e)"><rect width="99.519" height="99.519" x="31.369" y="102.665" fill="#6057BE" rx="49.759" transform="rotate(-9 31.37 102.665)"/><g clip-path="url(#f)"><path fill="#665DC0" d="M82.198 105.509c21.273-3.369 41.251 11.146 44.621 32.419 3.369 21.274-11.146 41.252-32.42 44.621-21.272 3.369-41.25-11.146-44.62-32.419-3.37-21.273 11.146-41.251 32.419-44.621Z"/><path fill="#C2BEE6" d="m72.809 140.917 5.395 3.92 3.919-5.395a6.616 6.616 0 0 0 1.178-4.96 6.62 6.62 0 0 0-2.653-4.354 6.65 6.65 0 0 0-4.962-1.188 6.65 6.65 0 0 0-4.352 2.663c-2.162 2.976-1.5 7.154 1.475 9.314Z"/><path fill="#F0EFF9" d="M62.892 143.224c-.454.63-1.485 2.345-1.233 4.642.294 2.692 2.151 4.259 2.712 4.676l11.617 8.437a6.616 6.616 0 0 0 4.96 1.178 6.617 6.617 0 0 0 4.354-2.653 6.616 6.616 0 0 0 1.178-4.96 6.619 6.619 0 0 0-2.653-4.354c-1.938-1.406-3.875-2.813-5.811-4.22l-5.811-4.221c-.75-.549-2.544-2.117-3.044-4.834a7.454 7.454 0 0 1-.074-2.219l-6.196 8.528h.001Z"/><path fill="#C2BEE6" d="m98.464 143.098-3.92 5.394a6.619 6.619 0 0 0-1.177 4.961 6.614 6.614 0 0 0 2.653 4.353 6.616 6.616 0 0 0 4.96 1.178 6.619 6.619 0 0 0 5.532-7.613 6.619 6.619 0 0 0-2.653-4.354l-5.395-3.919Z"/><path fill="#F0EFF9" d="M113.775 144.709c.454-.63 1.485-2.347 1.233-4.642-.294-2.693-2.151-4.259-2.712-4.674l-11.618-8.439a6.65 6.65 0 0 0-4.962-1.188 6.646 6.646 0 0 0-4.352 2.663 6.619 6.619 0 0 0-1.178 4.961 6.614 6.614 0 0 0 2.653 4.353c1.987 1.442 3.974 2.886 5.96 4.33l5.66 4.11c.75.549 2.544 2.116 3.044 4.835.146.796.153 1.54.074 2.218l6.196-8.528.002.001Z"/></g></g></g><g filter="url(#g)"><rect width="61" height="61" x="127" y="69.558" fill="#fff" rx="12" shape-rendering="crispEdges"/><rect width="45" height="45" x="135" y="77.558" fill="#FFB020" rx="8"/><path fill="#000" d="M147.708 100.058a1.125 1.125 0 0 0 2.25 0h-2.25Zm18.459-5.375a1.125 1.125 0 0 0 0-2.25v2.25Zm-2.455-5.17a1.125 1.125 0 0 0-1.591 1.59l1.591-1.59Zm2.455 4.045.795.795c.44-.44.44-1.151 0-1.59l-.795.795Zm-4.046 2.454a1.126 1.126 0 0 0 1.591 1.591l-1.591-1.59Zm-12.163 4.046v-3.25h-2.25v3.25h2.25Zm0-3.25c0-1.174.952-2.125 2.125-2.125v-2.25a4.375 4.375 0 0 0-4.375 4.375h2.25Zm2.125-2.125h14.084v-2.25h-14.084v2.25Zm10.038-3.58 3.25 3.25 1.591-1.59-3.25-3.25-1.591 1.59Zm3.25 1.66-3.25 3.25 1.591 1.59 3.25-3.25-1.591-1.59ZM167.292 100.058a1.125 1.125 0 1 0-2.25 0h2.25Zm-18.459 5.375a1.125 1.125 0 1 0 0 2.25v-2.25Zm2.455 5.17a1.126 1.126 0 0 0 1.591-1.591l-1.591 1.591Zm-2.455-4.045-.795-.796a1.126 1.126 0 0 0 0 1.591l.795-.795Zm4.046-2.455a1.126 1.126 0 0 0-1.591-1.591l1.591 1.591Zm12.163-4.045v3.25h2.25v-3.25h-2.25Zm0 3.25a2.126 2.126 0 0 1-2.125 2.125v2.25a4.375 4.375 0 0 0 4.375-4.375h-2.25Zm-2.125 2.125h-14.084v2.25h14.084v-2.25Zm-10.038 3.579-3.25-3.25-1.591 1.591 3.25 3.25 1.591-1.591Zm-3.25-1.659 3.25-3.25-1.591-1.591-3.25 3.25 1.591 1.591Z"/></g><g filter="url(#h)"><rect width="61" height="61" x="109" y="174" fill="#fff" rx="12" shape-rendering="crispEdges"/><rect width="45" height="45" x="117" y="182" fill="#FFB020" rx="8"/><path stroke="#000" stroke-linecap="round" stroke-linejoin="round" stroke-width="2" d="M149.25 204.5a9.75 9.75 0 0 0-9.75-9.75 9.75 9.75 0 0 0-9.75 9.75 9.75 9.75 0 0 0 9.75 9.75M130.4 201.25h18.2M130.4 207.75h9.1"/><path stroke="#000" stroke-linecap="round" stroke-linejoin="round" stroke-width="2" d="M139.043 194.75a18.414 18.414 0 0 0 0 19.5M140.042 194.75c1.862 2.985 2.708 6.366 2.708 9.75"/><path fill="#000" d="M147 206.667a1 1 0 0 0-2 0h2Zm-2 7.583a1 1 0 1 0 2 0h-2Zm-1.543-3.957a1 1 0 0 0-1.414 1.414l1.414-1.414ZM146 214.25l-.707.707a.999.999 0 0 0 1.414 0l-.707-.707Zm3.957-2.543a.999.999 0 1 0-1.414-1.414l1.414 1.414Zm-4.957-5.04v7.583h2v-7.583h-2Zm-2.957 5.04 3.25 3.25 1.414-1.414-3.25-3.25-1.414 1.414Zm4.664 3.25 3.25-3.25-1.414-1.414-3.25 3.25 1.414 1.414Z"/></g><path fill="url(#i)" fill-opacity=".4" d="M16.748 90.725a18.613 18.613 0 0 0 16.191 16.059l.558.069a18.248 18.248 0 0 0-16.724 15.934l-.024.194c-.592-8.602-7.425-15.457-16.026-16.076L0 106.853l1.473-.171a17.318 17.318 0 0 0 15.275-15.957Z"/><path fill="url(#j)" fill-opacity=".4" d="M27.543 78A9.768 9.768 0 0 0 36 86.457a9.2 9.2 0 0 0-8.41 8.073l-.047.383c-.298-4.51-3.948-8.12-8.456-8.456l.472-.057a9.095 9.095 0 0 0 7.984-8.4Z"/><defs><filter id="a" width="150.092" height="150.092" x="149" y="-4" color-interpolation-filters="sRGB" filterUnits="userSpaceOnUse"><feFlood flood-opacity="0" result="BackgroundImageFix"/><feColorMatrix in="SourceAlpha" result="hardAlpha" values="0 0 0 0 0 0 0 0 0 0 0 0 0 0 0 0 0 0 127 0"/><feOffset dy="1"/><feGaussianBlur stdDeviation="2.5"/><feComposite in2="hardAlpha" operator="out"/><feColorMatrix values="0 0 0 0 0 0 0 0 0 0 0 0 0 0 0 0 0 0 0.1 0"/><feBlend in2="BackgroundImageFix" result="effect1_dropShadow_2036_962"/><feBlend in="SourceGraphic" in2="effect1_dropShadow_2036_962" result="shape"/></filter><filter id="b" width="124.385" height="124.385" x="151.854" y="173.854" color-interpolation-filters="sRGB" filterUnits="userSpaceOnUse"><feFlood flood-opacity="0" result="BackgroundImageFix"/><feColorMatrix in="SourceAlpha" result="hardAlpha" values="0 0 0 0 0 0 0 0 0 0 0 0 0 0 0 0 0 0 127 0"/><feOffset dy="1"/><feGaussianBlur stdDeviation="2.5"/><feComposite in2="hardAlpha" operator="out"/><feColorMatrix values="0 0 0 0 0 0 0 0 0 0 0 0 0 0 0 0 0 0 0.1 0"/><feBlend in2="BackgroundImageFix" result="effect1_dropShadow_2036_962"/><feBlend in="SourceGraphic" in2="effect1_dropShadow_2036_962" result="shape"/></filter><filter id="d" width="142.168" height="142.168" x="17.216" y="73.943" color-interpolation-filters="sRGB" filterUnits="userSpaceOnUse"><feFlood flood-opacity="0" result="BackgroundImageFix"/><feColorMatrix in="SourceAlpha" result="hardAlpha" values="0 0 0 0 0 0 0 0 0 0 0 0 0 0 0 0 0 0 127 0"/><feOffset dy="1"/><feGaussianBlur stdDeviation="2.5"/><feComposite in2="hardAlpha" operator="out"/><feColorMatrix values="0 0 0 0 0 0 0 0 0 0 0 0 0 0 0 0 0 0 0.1 0"/><feBlend in2="BackgroundImageFix" result="effect1_dropShadow_2036_962"/><feBlend in="SourceGraphic" in2="effect1_dropShadow_2036_962" result="shape"/></filter><filter id="g" width="71" height="71" x="122" y="65.558" color-interpolation-filters="sRGB" filterUnits="userSpaceOnUse"><feFlood flood-opacity="0" result="BackgroundImageFix"/><feColorMatrix in="SourceAlpha" result="hardAlpha" values="0 0 0 0 0 0 0 0 0 0 0 0 0 0 0 0 0 0 127 0"/><feOffset dy="1"/><feGaussianBlur stdDeviation="2.5"/><feComposite in2="hardAlpha" operator="out"/><feColorMatrix values="0 0 0 0 0 0 0 0 0 0 0 0 0 0 0 0 0 0 0.1 0"/><feBlend in2="BackgroundImageFix" result="effect1_dropShadow_2036_962"/><feBlend in="SourceGraphic" in2="effect1_dropShadow_2036_962" result="shape"/></filter><filter id="h" width="71" height="71" x="104" y="170" color-interpolation-filters="sRGB" filterUnits="userSpaceOnUse"><feFlood flood-opacity="0" result="BackgroundImageFix"/><feColorMatrix in="SourceAlpha" result="hardAlpha" values="0 0 0 0 0 0 0 0 0 0 0 0 0 0 0 0 0 0 127 0"/><feOffset dy="1"/><feGaussianBlur stdDeviation="2.5"/><feComposite in2="hardAlpha" operator="out"/><feColorMatrix values="0 0 0 0 0 0 0 0 0 0 0 0 0 0 0 0 0 0 0.1 0"/><feBlend in2="BackgroundImageFix" result="effect1_dropShadow_2036_962"/><feBlend in="SourceGraphic" in2="effect1_dropShadow_2036_962" result="shape"/></filter><clipPath id="c"><path fill="#fff" d="m180.845 208.625 59.616-6.78 6.78 59.616-59.616 6.78z"/></clipPath><clipPath id="e"><rect width="99.519" height="99.519" x="31.369" y="102.665" fill="#fff" rx="49.759" transform="rotate(-9 31.37 102.665)"/></clipPath><clipPath id="f"><path fill="#fff" d="m43.678 111.61 77.04-12.202 12.202 77.04-77.04 12.202z"/></clipPath><linearGradient id="i" x1="33.497" x2="-2.227" y1="106.853" y2="107.617" gradientUnits="userSpaceOnUse"><stop stop-color="#6625FF"/><stop offset="1" stop-color="#B599FF"/></linearGradient><linearGradient id="j" x1="36" x2="17.962" y1="86.457" y2="86.828" gradientUnits="userSpaceOnUse"><stop stop-color="#6625FF"/><stop offset="1" stop-color="#B599FF"/></linearGradient></defs></svg>