<svg xmlns="http://www.w3.org/2000/svg" width="695" height="403" viewBox="0 0 695 403" fill="none"><path d="M83.5 120.18C82.54 120.18 81.715 119.955 81.025 119.505C80.345 119.045 79.87 118.415 79.6 117.615L80.5 117.09C80.69 117.74 81.04 118.25 81.55 118.62C82.06 118.98 82.715 119.16 83.515 119.16C84.295 119.16 84.9 118.99 85.33 118.65C85.77 118.3 85.99 117.84 85.99 117.27C85.99 116.72 85.79 116.305 85.39 116.025C84.99 115.745 84.33 115.455 83.41 115.155C82.32 114.795 81.6 114.505 81.25 114.285C80.45 113.805 80.05 113.11 80.05 112.2C80.05 111.31 80.36 110.61 80.98 110.1C81.6 109.58 82.365 109.32 83.275 109.32C84.095 109.32 84.805 109.535 85.405 109.965C86.005 110.385 86.45 110.925 86.74 111.585L85.855 112.08C85.375 110.92 84.515 110.34 83.275 110.34C82.625 110.34 82.1 110.5 81.7 110.82C81.3 111.14 81.1 111.585 81.1 112.155C81.1 112.675 81.28 113.065 81.64 113.325C82 113.585 82.595 113.85 83.425 114.12C83.805 114.25 84.075 114.345 84.235 114.405C84.405 114.455 84.645 114.545 84.955 114.675C85.275 114.795 85.51 114.905 85.66 115.005C85.81 115.095 85.99 115.225 86.2 115.395C86.42 115.555 86.575 115.72 86.665 115.89C86.765 116.05 86.85 116.25 86.92 116.49C87 116.72 87.04 116.97 87.04 117.24C87.04 118.13 86.715 118.845 86.065 119.385C85.415 119.915 84.56 120.18 83.5 120.18ZM92.1541 112.32C93.2641 112.32 94.1591 112.715 94.8391 113.505C95.5291 114.285 95.8741 115.21 95.8741 116.28C95.8741 116.39 95.8641 116.545 95.8441 116.745H89.2591C89.3591 117.505 89.6791 118.11 90.2191 118.56C90.7691 119 91.4441 119.22 92.2441 119.22C92.8141 119.22 93.3041 119.105 93.7141 118.875C94.1341 118.635 94.4491 118.325 94.6591 117.945L95.5291 118.455C95.1991 118.985 94.7491 119.405 94.1791 119.715C93.6091 120.025 92.9591 120.18 92.2291 120.18C91.0491 120.18 90.0891 119.81 89.3491 119.07C88.6091 118.33 88.2391 117.39 88.2391 116.25C88.2391 115.13 88.6041 114.195 89.3341 113.445C90.0641 112.695 91.0041 112.32 92.1541 112.32ZM92.1541 113.28C91.3741 113.28 90.7191 113.515 90.1891 113.985C89.6691 114.445 89.3591 115.045 89.2591 115.785H94.8541C94.7541 114.995 94.4491 114.38 93.9391 113.94C93.4291 113.5 92.8341 113.28 92.1541 113.28ZM97.2988 120V109.05H98.2888V120H97.2988ZM103.705 112.32C104.815 112.32 105.71 112.715 106.39 113.505C107.08 114.285 107.425 115.21 107.425 116.28C107.425 116.39 107.415 116.545 107.395 116.745H100.81C100.91 117.505 101.23 118.11 101.77 118.56C102.32 119 102.995 119.22 103.795 119.22C104.365 119.22 104.855 119.105 105.265 118.875C105.685 118.635 106 118.325 106.21 117.945L107.08 118.455C106.75 118.985 106.3 119.405 105.73 119.715C105.16 120.025 104.51 120.18 103.78 120.18C102.6 120.18 101.64 119.81 100.9 119.07C100.16 118.33 99.7896 117.39 99.7896 116.25C99.7896 115.13 100.155 114.195 100.885 113.445C101.615 112.695 102.555 112.32 103.705 112.32ZM103.705 113.28C102.925 113.28 102.27 113.515 101.74 113.985C101.22 114.445 100.91 115.045 100.81 115.785H106.405C106.305 114.995 106 114.38 105.49 113.94C104.98 113.5 104.385 113.28 103.705 113.28ZM112.344 120.18C111.214 120.18 110.274 119.805 109.524 119.055C108.774 118.295 108.399 117.36 108.399 116.25C108.399 115.14 108.774 114.21 109.524 113.46C110.274 112.7 111.214 112.32 112.344 112.32C113.084 112.32 113.749 112.5 114.339 112.86C114.929 113.21 115.359 113.685 115.629 114.285L114.819 114.75C114.619 114.3 114.294 113.945 113.844 113.685C113.404 113.415 112.904 113.28 112.344 113.28C111.514 113.28 110.814 113.57 110.244 114.15C109.674 114.72 109.389 115.42 109.389 116.25C109.389 117.08 109.674 117.785 110.244 118.365C110.814 118.935 111.514 119.22 112.344 119.22C112.904 119.22 113.404 119.09 113.844 118.83C114.284 118.56 114.629 118.2 114.879 117.75L115.704 118.23C115.394 118.83 114.939 119.305 114.339 119.655C113.739 120.005 113.074 120.18 112.344 120.18ZM120.951 113.46H118.791V118.005C118.791 118.415 118.871 118.71 119.031 118.89C119.191 119.06 119.431 119.15 119.751 119.16C120.071 119.16 120.471 119.15 120.951 119.13V120C119.901 120.16 119.111 120.085 118.581 119.775C118.061 119.465 117.801 118.875 117.801 118.005V113.46H116.226V112.5H117.801V110.7L118.791 110.4V112.5H120.951V113.46ZM132.501 112.5H133.491V120H132.501V118.53C131.811 119.63 130.801 120.18 129.471 120.18C128.401 120.18 127.486 119.8 126.726 119.04C125.976 118.28 125.601 117.35 125.601 116.25C125.601 115.15 125.976 114.22 126.726 113.46C127.486 112.7 128.401 112.32 129.471 112.32C130.801 112.32 131.811 112.87 132.501 113.97V112.5ZM127.446 118.365C128.016 118.935 128.716 119.22 129.546 119.22C130.376 119.22 131.076 118.935 131.646 118.365C132.216 117.785 132.501 117.08 132.501 116.25C132.501 115.42 132.216 114.72 131.646 114.15C131.076 113.57 130.376 113.28 129.546 113.28C128.716 113.28 128.016 113.57 127.446 114.15C126.876 114.72 126.591 115.42 126.591 116.25C126.591 117.08 126.876 117.785 127.446 118.365ZM148.067 112.5H149.087L146.777 120H145.697L143.762 113.955L141.827 120H140.747L138.437 112.5H139.457L141.302 118.725L143.267 112.5H144.257L146.222 118.725L148.067 112.5ZM153.602 112.32C154.712 112.32 155.607 112.715 156.287 113.505C156.977 114.285 157.322 115.21 157.322 116.28C157.322 116.39 157.312 116.545 157.292 116.745H150.707C150.807 117.505 151.127 118.11 151.667 118.56C152.217 119 152.892 119.22 153.692 119.22C154.262 119.22 154.752 119.105 155.162 118.875C155.582 118.635 155.897 118.325 156.107 117.945L156.977 118.455C156.647 118.985 156.197 119.405 155.627 119.715C155.057 120.025 154.407 120.18 153.677 120.18C152.497 120.18 151.537 119.81 150.797 119.07C150.057 118.33 149.687 117.39 149.687 116.25C149.687 115.13 150.052 114.195 150.782 113.445C151.512 112.695 152.452 112.32 153.602 112.32ZM153.602 113.28C152.822 113.28 152.167 113.515 151.637 113.985C151.117 114.445 150.807 115.045 150.707 115.785H156.302C156.202 114.995 155.897 114.38 155.387 113.94C154.877 113.5 154.282 113.28 153.602 113.28ZM162.767 112.32C163.837 112.32 164.747 112.7 165.497 113.46C166.257 114.22 166.637 115.15 166.637 116.25C166.637 117.35 166.257 118.28 165.497 119.04C164.747 119.8 163.837 120.18 162.767 120.18C161.437 120.18 160.427 119.63 159.737 118.53V120H158.747V109.5H159.737V113.97C160.427 112.87 161.437 112.32 162.767 112.32ZM160.592 118.365C161.162 118.935 161.862 119.22 162.692 119.22C163.522 119.22 164.222 118.935 164.792 118.365C165.362 117.785 165.647 117.08 165.647 116.25C165.647 115.42 165.362 114.72 164.792 114.15C164.222 113.57 163.522 113.28 162.692 113.28C161.862 113.28 161.162 113.57 160.592 114.15C160.022 114.72 159.737 115.42 159.737 116.25C159.737 117.08 160.022 117.785 160.592 118.365ZM168.766 114.465C168.766 114.805 168.916 115.075 169.216 115.275C169.516 115.475 169.881 115.63 170.311 115.74C170.741 115.85 171.171 115.975 171.601 116.115C172.031 116.245 172.396 116.47 172.696 116.79C172.996 117.1 173.146 117.51 173.146 118.02C173.146 118.66 172.891 119.18 172.381 119.58C171.881 119.98 171.231 120.18 170.431 120.18C169.711 120.18 169.096 120.02 168.586 119.7C168.086 119.38 167.736 118.965 167.536 118.455L168.376 117.96C168.516 118.35 168.766 118.66 169.126 118.89C169.496 119.11 169.931 119.22 170.431 119.22C170.921 119.22 171.331 119.125 171.661 118.935C171.991 118.735 172.156 118.43 172.156 118.02C172.156 117.68 172.006 117.41 171.706 117.21C171.406 117.01 171.041 116.855 170.611 116.745C170.181 116.635 169.751 116.515 169.321 116.385C168.891 116.245 168.526 116.02 168.226 115.71C167.926 115.39 167.776 114.975 167.776 114.465C167.776 113.855 168.016 113.345 168.496 112.935C168.986 112.525 169.601 112.32 170.341 112.32C170.951 112.32 171.486 112.46 171.946 112.74C172.406 113.01 172.746 113.38 172.966 113.85L172.141 114.33C171.851 113.63 171.251 113.28 170.341 113.28C169.911 113.28 169.541 113.385 169.231 113.595C168.921 113.795 168.766 114.085 168.766 114.465ZM175.58 110.7C175.44 110.84 175.27 110.91 175.07 110.91C174.87 110.91 174.7 110.84 174.56 110.7C174.42 110.56 174.35 110.39 174.35 110.19C174.35 109.99 174.42 109.82 174.56 109.68C174.7 109.54 174.87 109.47 175.07 109.47C175.27 109.47 175.44 109.54 175.58 109.68C175.72 109.82 175.79 109.99 175.79 110.19C175.79 110.39 175.72 110.56 175.58 110.7ZM174.575 120V112.5H175.565V120H174.575ZM181.49 113.46H179.33V118.005C179.33 118.415 179.41 118.71 179.57 118.89C179.73 119.06 179.97 119.15 180.29 119.16C180.61 119.16 181.01 119.15 181.49 119.13V120C180.44 120.16 179.65 120.085 179.12 119.775C178.6 119.465 178.34 118.875 178.34 118.005V113.46H176.765V112.5H178.34V110.7L179.33 110.4V112.5H181.49V113.46ZM186.001 112.32C187.111 112.32 188.006 112.715 188.686 113.505C189.376 114.285 189.721 115.21 189.721 116.28C189.721 116.39 189.711 116.545 189.691 116.745H183.106C183.206 117.505 183.526 118.11 184.066 118.56C184.616 119 185.291 119.22 186.091 119.22C186.661 119.22 187.151 119.105 187.561 118.875C187.981 118.635 188.296 118.325 188.506 117.945L189.376 118.455C189.046 118.985 188.596 119.405 188.026 119.715C187.456 120.025 186.806 120.18 186.076 120.18C184.896 120.18 183.936 119.81 183.196 119.07C182.456 118.33 182.086 117.39 182.086 116.25C182.086 115.13 182.451 114.195 183.181 113.445C183.911 112.695 184.851 112.32 186.001 112.32ZM186.001 113.28C185.221 113.28 184.566 113.515 184.036 113.985C183.516 114.445 183.206 115.045 183.106 115.785H188.701C188.601 114.995 188.296 114.38 187.786 113.94C187.276 113.5 186.681 113.28 186.001 113.28ZM202.741 112.32C203.581 112.32 204.256 112.59 204.766 113.13C205.286 113.67 205.546 114.4 205.546 115.32V120H204.556V115.32C204.556 114.67 204.386 114.17 204.046 113.82C203.716 113.46 203.276 113.28 202.726 113.28C202.106 113.28 201.601 113.49 201.211 113.91C200.831 114.32 200.641 114.965 200.641 115.845V120H199.651V115.32C199.651 114.66 199.491 114.155 199.171 113.805C198.861 113.455 198.436 113.28 197.896 113.28C197.296 113.28 196.786 113.49 196.366 113.91C195.946 114.33 195.736 114.975 195.736 115.845V120H194.746V112.5H195.736V113.595C196.276 112.745 197.041 112.32 198.031 112.32C199.111 112.32 199.871 112.775 200.311 113.685C200.851 112.775 201.661 112.32 202.741 112.32ZM213.596 119.055C212.836 119.805 211.906 120.18 210.806 120.18C209.706 120.18 208.771 119.805 208.001 119.055C207.241 118.295 206.861 117.36 206.861 116.25C206.861 115.14 207.241 114.21 208.001 113.46C208.771 112.7 209.706 112.32 210.806 112.32C211.906 112.32 212.836 112.7 213.596 113.46C214.366 114.21 214.751 115.14 214.751 116.25C214.751 117.36 214.366 118.295 213.596 119.055ZM208.706 118.365C209.276 118.935 209.976 119.22 210.806 119.22C211.636 119.22 212.336 118.935 212.906 118.365C213.476 117.785 213.761 117.08 213.761 116.25C213.761 115.42 213.476 114.72 212.906 114.15C212.336 113.57 211.636 113.28 210.806 113.28C209.976 113.28 209.276 113.57 208.706 114.15C208.136 114.72 207.851 115.42 207.851 116.25C207.851 117.08 208.136 117.785 208.706 118.365ZM222.708 109.5H223.698V120H222.708V118.53C222.018 119.63 221.008 120.18 219.678 120.18C218.608 120.18 217.693 119.8 216.933 119.04C216.183 118.28 215.808 117.35 215.808 116.25C215.808 115.15 216.183 114.22 216.933 113.46C217.693 112.7 218.608 112.32 219.678 112.32C221.008 112.32 222.018 112.87 222.708 113.97V109.5ZM217.653 118.365C218.223 118.935 218.923 119.22 219.753 119.22C220.583 119.22 221.283 118.935 221.853 118.365C222.423 117.785 222.708 117.08 222.708 116.25C222.708 115.42 222.423 114.72 221.853 114.15C221.283 113.57 220.583 113.28 219.753 113.28C218.923 113.28 218.223 113.57 217.653 114.15C217.083 114.72 216.798 115.42 216.798 116.25C216.798 117.08 217.083 117.785 217.653 118.365ZM229.109 112.32C230.219 112.32 231.114 112.715 231.794 113.505C232.484 114.285 232.829 115.21 232.829 116.28C232.829 116.39 232.819 116.545 232.799 116.745H226.214C226.314 117.505 226.634 118.11 227.174 118.56C227.724 119 228.399 119.22 229.199 119.22C229.769 119.22 230.259 119.105 230.669 118.875C231.089 118.635 231.404 118.325 231.614 117.945L232.484 118.455C232.154 118.985 231.704 119.405 231.134 119.715C230.564 120.025 229.914 120.18 229.184 120.18C228.004 120.18 227.044 119.81 226.304 119.07C225.564 118.33 225.194 117.39 225.194 116.25C225.194 115.13 225.559 114.195 226.289 113.445C227.019 112.695 227.959 112.32 229.109 112.32ZM229.109 113.28C228.329 113.28 227.674 113.515 227.144 113.985C226.624 114.445 226.314 115.045 226.214 115.785H231.809C231.709 114.995 231.404 114.38 230.894 113.94C230.384 113.5 229.789 113.28 229.109 113.28ZM234.254 120V109.05H235.244V120H234.254ZM244.769 113.46H242.609V118.005C242.609 118.415 242.689 118.71 242.849 118.89C243.009 119.06 243.249 119.15 243.569 119.16C243.889 119.16 244.289 119.15 244.769 119.13V120C243.719 120.16 242.929 120.085 242.399 119.775C241.879 119.465 241.619 118.875 241.619 118.005V113.46H240.044V112.5H241.619V110.7L242.609 110.4V112.5H244.769V113.46ZM251.816 112.5H252.866L249.656 120.69C249.366 121.43 248.951 122.01 248.411 122.43C247.881 122.86 247.286 123.05 246.626 123V122.07C247.526 122.17 248.211 121.65 248.681 120.51L248.876 120.045L245.516 112.5H246.566L249.386 118.785L251.816 112.5ZM257.932 112.32C259.002 112.32 259.912 112.7 260.662 113.46C261.422 114.22 261.802 115.15 261.802 116.25C261.802 117.35 261.422 118.28 260.662 119.04C259.912 119.8 259.002 120.18 257.932 120.18C256.602 120.18 255.592 119.63 254.902 118.53V123H253.912V112.5H254.902V113.97C255.592 112.87 256.602 112.32 257.932 112.32ZM255.757 118.365C256.327 118.935 257.027 119.22 257.857 119.22C258.687 119.22 259.387 118.935 259.957 118.365C260.527 117.785 260.812 117.08 260.812 116.25C260.812 115.42 260.527 114.72 259.957 114.15C259.387 113.57 258.687 113.28 257.857 113.28C257.027 113.28 256.327 113.57 255.757 114.15C255.187 114.72 254.902 115.42 254.902 116.25C254.902 117.08 255.187 117.785 255.757 118.365ZM266.763 112.32C267.873 112.32 268.768 112.715 269.448 113.505C270.138 114.285 270.483 115.21 270.483 116.28C270.483 116.39 270.473 116.545 270.453 116.745H263.868C263.968 117.505 264.288 118.11 264.828 118.56C265.378 119 266.053 119.22 266.853 119.22C267.423 119.22 267.913 119.105 268.323 118.875C268.743 118.635 269.058 118.325 269.268 117.945L270.138 118.455C269.808 118.985 269.358 119.405 268.788 119.715C268.218 120.025 267.568 120.18 266.838 120.18C265.658 120.18 264.698 119.81 263.958 119.07C263.218 118.33 262.848 117.39 262.848 116.25C262.848 115.13 263.213 114.195 263.943 113.445C264.673 112.695 265.613 112.32 266.763 112.32ZM266.763 113.28C265.983 113.28 265.328 113.515 264.798 113.985C264.278 114.445 263.968 115.045 263.868 115.785H269.463C269.363 114.995 269.058 114.38 268.548 113.94C268.038 113.5 267.443 113.28 266.763 113.28ZM272.958 118.725L272.058 122.1H271.158L271.758 118.725H272.958ZM284.811 112.5H285.801V120H284.811V118.53C284.121 119.63 283.111 120.18 281.781 120.18C280.711 120.18 279.796 119.8 279.036 119.04C278.286 118.28 277.911 117.35 277.911 116.25C277.911 115.15 278.286 114.22 279.036 113.46C279.796 112.7 280.711 112.32 281.781 112.32C283.111 112.32 284.121 112.87 284.811 113.97V112.5ZM279.756 118.365C280.326 118.935 281.026 119.22 281.856 119.22C282.686 119.22 283.386 118.935 283.956 118.365C284.526 117.785 284.811 117.08 284.811 116.25C284.811 115.42 284.526 114.72 283.956 114.15C283.386 113.57 282.686 113.28 281.856 113.28C281.026 113.28 280.326 113.57 279.756 114.15C279.186 114.72 278.901 115.42 278.901 116.25C278.901 117.08 279.186 117.785 279.756 118.365ZM291.257 112.32C292.167 112.32 292.882 112.6 293.402 113.16C293.932 113.71 294.197 114.455 294.197 115.395V120H293.207V115.395C293.207 114.725 293.027 114.205 292.667 113.835C292.317 113.465 291.817 113.28 291.167 113.28C290.447 113.28 289.862 113.51 289.412 113.97C288.962 114.42 288.737 115.12 288.737 116.07V120H287.747V112.5H288.737V113.67C289.297 112.77 290.137 112.32 291.257 112.32ZM302.412 109.5H303.402V120H302.412V118.53C301.722 119.63 300.712 120.18 299.382 120.18C298.312 120.18 297.397 119.8 296.637 119.04C295.887 118.28 295.512 117.35 295.512 116.25C295.512 115.15 295.887 114.22 296.637 113.46C297.397 112.7 298.312 112.32 299.382 112.32C300.712 112.32 301.722 112.87 302.412 113.97V109.5ZM297.357 118.365C297.927 118.935 298.627 119.22 299.457 119.22C300.287 119.22 300.987 118.935 301.557 118.365C302.127 117.785 302.412 117.08 302.412 116.25C302.412 115.42 302.127 114.72 301.557 114.15C300.987 113.57 300.287 113.28 299.457 113.28C298.627 113.28 297.927 113.57 297.357 114.15C296.787 114.72 296.502 115.42 296.502 116.25C296.502 117.08 296.787 117.785 297.357 118.365ZM312.443 120.18C311.313 120.18 310.373 119.805 309.623 119.055C308.873 118.295 308.498 117.36 308.498 116.25C308.498 115.14 308.873 114.21 309.623 113.46C310.373 112.7 311.313 112.32 312.443 112.32C313.183 112.32 313.848 112.5 314.438 112.86C315.028 113.21 315.458 113.685 315.728 114.285L314.918 114.75C314.718 114.3 314.393 113.945 313.943 113.685C313.503 113.415 313.003 113.28 312.443 113.28C311.613 113.28 310.913 113.57 310.343 114.15C309.773 114.72 309.488 115.42 309.488 116.25C309.488 117.08 309.773 117.785 310.343 118.365C310.913 118.935 311.613 119.22 312.443 119.22C313.003 119.22 313.503 119.09 313.943 118.83C314.383 118.56 314.728 118.2 314.978 117.75L315.803 118.23C315.493 118.83 315.038 119.305 314.438 119.655C313.838 120.005 313.173 120.18 312.443 120.18ZM323.286 119.055C322.526 119.805 321.596 120.18 320.496 120.18C319.396 120.18 318.461 119.805 317.691 119.055C316.931 118.295 316.551 117.36 316.551 116.25C316.551 115.14 316.931 114.21 317.691 113.46C318.461 112.7 319.396 112.32 320.496 112.32C321.596 112.32 322.526 112.7 323.286 113.46C324.056 114.21 324.441 115.14 324.441 116.25C324.441 117.36 324.056 118.295 323.286 119.055ZM318.396 118.365C318.966 118.935 319.666 119.22 320.496 119.22C321.326 119.22 322.026 118.935 322.596 118.365C323.166 117.785 323.451 117.08 323.451 116.25C323.451 115.42 323.166 114.72 322.596 114.15C322.026 113.57 321.326 113.28 320.496 113.28C319.666 113.28 318.966 113.57 318.396 114.15C317.826 114.72 317.541 115.42 317.541 116.25C317.541 117.08 317.826 117.785 318.396 118.365ZM329.457 112.32C330.367 112.32 331.082 112.6 331.602 113.16C332.132 113.71 332.397 114.455 332.397 115.395V120H331.407V115.395C331.407 114.725 331.227 114.205 330.867 113.835C330.517 113.465 330.017 113.28 329.367 113.28C328.647 113.28 328.062 113.51 327.612 113.97C327.162 114.42 326.937 115.12 326.937 116.07V120H325.947V112.5H326.937V113.67C327.497 112.77 328.337 112.32 329.457 112.32ZM338.137 113.46H335.977V118.005C335.977 118.415 336.057 118.71 336.217 118.89C336.377 119.06 336.617 119.15 336.937 119.16C337.257 119.16 337.657 119.15 338.137 119.13V120C337.087 120.16 336.297 120.085 335.767 119.775C335.247 119.465 334.987 118.875 334.987 118.005V113.46H333.412V112.5H334.987V110.7L335.977 110.4V112.5H338.137V113.46ZM340.642 110.7C340.502 110.84 340.332 110.91 340.132 110.91C339.932 110.91 339.762 110.84 339.622 110.7C339.482 110.56 339.412 110.39 339.412 110.19C339.412 109.99 339.482 109.82 339.622 109.68C339.762 109.54 339.932 109.47 340.132 109.47C340.332 109.47 340.502 109.54 340.642 109.68C340.782 109.82 340.852 109.99 340.852 110.19C340.852 110.39 340.782 110.56 340.642 110.7ZM339.637 120V112.5H340.627V120H339.637ZM346.088 112.32C346.998 112.32 347.713 112.6 348.233 113.16C348.763 113.71 349.028 114.455 349.028 115.395V120H348.038V115.395C348.038 114.725 347.858 114.205 347.498 113.835C347.148 113.465 346.648 113.28 345.998 113.28C345.278 113.28 344.693 113.51 344.243 113.97C343.793 114.42 343.568 115.12 343.568 116.07V120H342.578V112.5H343.568V113.67C344.128 112.77 344.968 112.32 346.088 112.32ZM356.072 112.5H357.062V120H356.072V118.83C355.512 119.73 354.672 120.18 353.552 120.18C352.642 120.18 351.922 119.905 351.392 119.355C350.872 118.795 350.612 118.045 350.612 117.105V112.5H351.602V117.105C351.602 117.775 351.777 118.295 352.127 118.665C352.487 119.035 352.992 119.22 353.642 119.22C354.362 119.22 354.947 118.995 355.397 118.545C355.847 118.085 356.072 117.38 356.072 116.43V112.5ZM362.471 112.32C363.581 112.32 364.476 112.715 365.156 113.505C365.846 114.285 366.191 115.21 366.191 116.28C366.191 116.39 366.181 116.545 366.161 116.745H359.576C359.676 117.505 359.996 118.11 360.536 118.56C361.086 119 361.761 119.22 362.561 119.22C363.131 119.22 363.621 119.105 364.031 118.875C364.451 118.635 364.766 118.325 364.976 117.945L365.846 118.455C365.516 118.985 365.066 119.405 364.496 119.715C363.926 120.025 363.276 120.18 362.546 120.18C361.366 120.18 360.406 119.81 359.666 119.07C358.926 118.33 358.556 117.39 358.556 116.25C358.556 115.13 358.921 114.195 359.651 113.445C360.381 112.695 361.321 112.32 362.471 112.32ZM362.471 113.28C361.691 113.28 361.036 113.515 360.506 113.985C359.986 114.445 359.676 115.045 359.576 115.785H365.171C365.071 114.995 364.766 114.38 364.256 113.94C363.746 113.5 363.151 113.28 362.471 113.28Z" fill="#607D8B"></path><path d="M89.8 366.5V377H88.75V368.09L85.075 374.24H84.925L81.25 368.09V377H80.2V366.5H81.505L85 372.35L88.495 366.5H89.8ZM97.1771 369.5H98.1671V377H97.1771V375.83C96.6171 376.73 95.7771 377.18 94.6571 377.18C93.7471 377.18 93.0271 376.905 92.4971 376.355C91.9771 375.795 91.7171 375.045 91.7171 374.105V369.5H92.7071V374.105C92.7071 374.775 92.8821 375.295 93.2321 375.665C93.5921 376.035 94.0971 376.22 94.7471 376.22C95.4671 376.22 96.0521 375.995 96.5021 375.545C96.9521 375.085 97.1771 374.38 97.1771 373.43V369.5ZM100.111 377V366.05H101.101V377H100.111ZM107.027 370.46H104.867V375.005C104.867 375.415 104.947 375.71 105.107 375.89C105.267 376.06 105.507 376.15 105.827 376.16C106.147 376.16 106.547 376.15 107.027 376.13V377C105.977 377.16 105.187 377.085 104.657 376.775C104.137 376.465 103.877 375.875 103.877 375.005V370.46H102.302V369.5H103.877V367.7L104.867 367.4V369.5H107.027V370.46ZM109.532 367.7C109.392 367.84 109.222 367.91 109.022 367.91C108.822 367.91 108.652 367.84 108.512 367.7C108.372 367.56 108.302 367.39 108.302 367.19C108.302 366.99 108.372 366.82 108.512 366.68C108.652 366.54 108.822 366.47 109.022 366.47C109.222 366.47 109.392 366.54 109.532 366.68C109.672 366.82 109.742 366.99 109.742 367.19C109.742 367.39 109.672 367.56 109.532 367.7ZM108.527 377V369.5H109.517V377H108.527ZM115.488 369.32C116.558 369.32 117.468 369.7 118.218 370.46C118.978 371.22 119.358 372.15 119.358 373.25C119.358 374.35 118.978 375.28 118.218 376.04C117.468 376.8 116.558 377.18 115.488 377.18C114.158 377.18 113.148 376.63 112.458 375.53V380H111.468V369.5H112.458V370.97C113.148 369.87 114.158 369.32 115.488 369.32ZM113.313 375.365C113.883 375.935 114.583 376.22 115.413 376.22C116.243 376.22 116.943 375.935 117.513 375.365C118.083 374.785 118.368 374.08 118.368 373.25C118.368 372.42 118.083 371.72 117.513 371.15C116.943 370.57 116.243 370.28 115.413 370.28C114.583 370.28 113.883 370.57 113.313 371.15C112.743 371.72 112.458 372.42 112.458 373.25C112.458 374.08 112.743 374.785 113.313 375.365ZM127.304 369.5H128.294V377H127.304V375.53C126.614 376.63 125.604 377.18 124.274 377.18C123.204 377.18 122.289 376.8 121.529 376.04C120.779 375.28 120.404 374.35 120.404 373.25C120.404 372.15 120.779 371.22 121.529 370.46C122.289 369.7 123.204 369.32 124.274 369.32C125.604 369.32 126.614 369.87 127.304 370.97V369.5ZM122.249 375.365C122.819 375.935 123.519 376.22 124.349 376.22C125.179 376.22 125.879 375.935 126.449 375.365C127.019 374.785 127.304 374.08 127.304 373.25C127.304 372.42 127.019 371.72 126.449 371.15C125.879 370.57 125.179 370.28 124.349 370.28C123.519 370.28 122.819 370.57 122.249 371.15C121.679 371.72 121.394 372.42 121.394 373.25C121.394 374.08 121.679 374.785 122.249 375.365ZM136.69 369.5H137.68V376.7C137.68 377.78 137.31 378.63 136.57 379.25C135.83 379.87 134.945 380.18 133.915 380.18C132.155 380.18 130.97 379.57 130.36 378.35L131.23 377.855C131.68 378.765 132.575 379.22 133.915 379.22C134.775 379.22 135.45 378.99 135.94 378.53C136.44 378.08 136.69 377.47 136.69 376.7V375.53C136 376.63 134.99 377.18 133.66 377.18C132.59 377.18 131.675 376.8 130.915 376.04C130.165 375.28 129.79 374.35 129.79 373.25C129.79 372.15 130.165 371.22 130.915 370.46C131.675 369.7 132.59 369.32 133.66 369.32C134.99 369.32 136 369.87 136.69 370.97V369.5ZM131.635 375.365C132.205 375.935 132.905 376.22 133.735 376.22C134.565 376.22 135.265 375.935 135.835 375.365C136.405 374.785 136.69 374.08 136.69 373.25C136.69 372.42 136.405 371.72 135.835 371.15C135.265 370.57 134.565 370.28 133.735 370.28C132.905 370.28 132.205 370.57 131.635 371.15C131.065 371.72 130.78 372.42 130.78 373.25C130.78 374.08 131.065 374.785 131.635 375.365ZM143.091 369.32C144.201 369.32 145.096 369.715 145.776 370.505C146.466 371.285 146.811 372.21 146.811 373.28C146.811 373.39 146.801 373.545 146.781 373.745H140.196C140.296 374.505 140.616 375.11 141.156 375.56C141.706 376 142.381 376.22 143.181 376.22C143.751 376.22 144.241 376.105 144.651 375.875C145.071 375.635 145.386 375.325 145.596 374.945L146.466 375.455C146.136 375.985 145.686 376.405 145.116 376.715C144.546 377.025 143.896 377.18 143.166 377.18C141.986 377.18 141.026 376.81 140.286 376.07C139.546 375.33 139.176 374.39 139.176 373.25C139.176 372.13 139.541 371.195 140.271 370.445C141.001 369.695 141.941 369.32 143.091 369.32ZM143.091 370.28C142.311 370.28 141.656 370.515 141.126 370.985C140.606 371.445 140.296 372.045 140.196 372.785H145.791C145.691 371.995 145.386 371.38 144.876 370.94C144.366 370.5 143.771 370.28 143.091 370.28ZM154.281 377L151.236 366.5H152.346L154.941 375.575L157.671 366.5H158.901L161.631 375.575L164.226 366.5H165.336L162.291 377H161.031L158.286 367.88L155.541 377H154.281ZM169.258 369.32C170.368 369.32 171.263 369.715 171.943 370.505C172.633 371.285 172.978 372.21 172.978 373.28C172.978 373.39 172.968 373.545 172.948 373.745H166.363C166.463 374.505 166.783 375.11 167.323 375.56C167.873 376 168.548 376.22 169.348 376.22C169.918 376.22 170.408 376.105 170.818 375.875C171.238 375.635 171.553 375.325 171.763 374.945L172.633 375.455C172.303 375.985 171.853 376.405 171.283 376.715C170.713 377.025 170.063 377.18 169.333 377.18C168.153 377.18 167.193 376.81 166.453 376.07C165.713 375.33 165.343 374.39 165.343 373.25C165.343 372.13 165.708 371.195 166.438 370.445C167.168 369.695 168.108 369.32 169.258 369.32ZM169.258 370.28C168.478 370.28 167.823 370.515 167.293 370.985C166.773 371.445 166.463 372.045 166.363 372.785H171.958C171.858 371.995 171.553 371.38 171.043 370.94C170.533 370.5 169.938 370.28 169.258 370.28ZM178.422 369.32C179.492 369.32 180.402 369.7 181.152 370.46C181.912 371.22 182.292 372.15 182.292 373.25C182.292 374.35 181.912 375.28 181.152 376.04C180.402 376.8 179.492 377.18 178.422 377.18C177.092 377.18 176.082 376.63 175.392 375.53V377H174.402V366.5H175.392V370.97C176.082 369.87 177.092 369.32 178.422 369.32ZM176.247 375.365C176.817 375.935 177.517 376.22 178.347 376.22C179.177 376.22 179.877 375.935 180.447 375.365C181.017 374.785 181.302 374.08 181.302 373.25C181.302 372.42 181.017 371.72 180.447 371.15C179.877 370.57 179.177 370.28 178.347 370.28C177.517 370.28 176.817 370.57 176.247 371.15C175.677 371.72 175.392 372.42 175.392 373.25C175.392 374.08 175.677 374.785 176.247 375.365ZM184.422 371.465C184.422 371.805 184.572 372.075 184.872 372.275C185.172 372.475 185.537 372.63 185.967 372.74C186.397 372.85 186.827 372.975 187.257 373.115C187.687 373.245 188.052 373.47 188.352 373.79C188.652 374.1 188.802 374.51 188.802 375.02C188.802 375.66 188.547 376.18 188.037 376.58C187.537 376.98 186.887 377.18 186.087 377.18C185.367 377.18 184.752 377.02 184.242 376.7C183.742 376.38 183.392 375.965 183.192 375.455L184.032 374.96C184.172 375.35 184.422 375.66 184.782 375.89C185.152 376.11 185.587 376.22 186.087 376.22C186.577 376.22 186.987 376.125 187.317 375.935C187.647 375.735 187.812 375.43 187.812 375.02C187.812 374.68 187.662 374.41 187.362 374.21C187.062 374.01 186.697 373.855 186.267 373.745C185.837 373.635 185.407 373.515 184.977 373.385C184.547 373.245 184.182 373.02 183.882 372.71C183.582 372.39 183.432 371.975 183.432 371.465C183.432 370.855 183.672 370.345 184.152 369.935C184.642 369.525 185.257 369.32 185.997 369.32C186.607 369.32 187.142 369.46 187.602 369.74C188.062 370.01 188.402 370.38 188.622 370.85L187.797 371.33C187.507 370.63 186.907 370.28 185.997 370.28C185.567 370.28 185.197 370.385 184.887 370.595C184.577 370.795 184.422 371.085 184.422 371.465ZM191.235 367.7C191.095 367.84 190.925 367.91 190.725 367.91C190.525 367.91 190.355 367.84 190.215 367.7C190.075 367.56 190.005 367.39 190.005 367.19C190.005 366.99 190.075 366.82 190.215 366.68C190.355 366.54 190.525 366.47 190.725 366.47C190.925 366.47 191.095 366.54 191.235 366.68C191.375 366.82 191.445 366.99 191.445 367.19C191.445 367.39 191.375 367.56 191.235 367.7ZM190.23 377V369.5H191.22V377H190.23ZM197.146 370.46H194.986V375.005C194.986 375.415 195.066 375.71 195.226 375.89C195.386 376.06 195.626 376.15 195.946 376.16C196.266 376.16 196.666 376.15 197.146 376.13V377C196.096 377.16 195.306 377.085 194.776 376.775C194.256 376.465 193.996 375.875 193.996 375.005V370.46H192.421V369.5H193.996V367.7L194.986 367.4V369.5H197.146V370.46ZM201.657 369.32C202.767 369.32 203.662 369.715 204.342 370.505C205.032 371.285 205.377 372.21 205.377 373.28C205.377 373.39 205.367 373.545 205.347 373.745H198.762C198.862 374.505 199.182 375.11 199.722 375.56C200.272 376 200.947 376.22 201.747 376.22C202.317 376.22 202.807 376.105 203.217 375.875C203.637 375.635 203.952 375.325 204.162 374.945L205.032 375.455C204.702 375.985 204.252 376.405 203.682 376.715C203.112 377.025 202.462 377.18 201.732 377.18C200.552 377.18 199.592 376.81 198.852 376.07C198.112 375.33 197.742 374.39 197.742 373.25C197.742 372.13 198.107 371.195 198.837 370.445C199.567 369.695 200.507 369.32 201.657 369.32ZM201.657 370.28C200.877 370.28 200.222 370.515 199.692 370.985C199.172 371.445 198.862 372.045 198.762 372.785H204.357C204.257 371.995 203.952 371.38 203.442 370.94C202.932 370.5 202.337 370.28 201.657 370.28Z" fill="#607D8B"></path><path d="M481.5 377.18C480.54 377.18 479.715 376.955 479.025 376.505C478.345 376.045 477.87 375.415 477.6 374.615L478.5 374.09C478.69 374.74 479.04 375.25 479.55 375.62C480.06 375.98 480.715 376.16 481.515 376.16C482.295 376.16 482.9 375.99 483.33 375.65C483.77 375.3 483.99 374.84 483.99 374.27C483.99 373.72 483.79 373.305 483.39 373.025C482.99 372.745 482.33 372.455 481.41 372.155C480.32 371.795 479.6 371.505 479.25 371.285C478.45 370.805 478.05 370.11 478.05 369.2C478.05 368.31 478.36 367.61 478.98 367.1C479.6 366.58 480.365 366.32 481.275 366.32C482.095 366.32 482.805 366.535 483.405 366.965C484.005 367.385 484.45 367.925 484.74 368.585L483.855 369.08C483.375 367.92 482.515 367.34 481.275 367.34C480.625 367.34 480.1 367.5 479.7 367.82C479.3 368.14 479.1 368.585 479.1 369.155C479.1 369.675 479.28 370.065 479.64 370.325C480 370.585 480.595 370.85 481.425 371.12C481.805 371.25 482.075 371.345 482.235 371.405C482.405 371.455 482.645 371.545 482.955 371.675C483.275 371.795 483.51 371.905 483.66 372.005C483.81 372.095 483.99 372.225 484.2 372.395C484.42 372.555 484.575 372.72 484.665 372.89C484.765 373.05 484.85 373.25 484.92 373.49C485 373.72 485.04 373.97 485.04 374.24C485.04 375.13 484.715 375.845 484.065 376.385C483.415 376.915 482.56 377.18 481.5 377.18ZM487.548 367.7C487.408 367.84 487.238 367.91 487.038 367.91C486.838 367.91 486.668 367.84 486.528 367.7C486.388 367.56 486.318 367.39 486.318 367.19C486.318 366.99 486.388 366.82 486.528 366.68C486.668 366.54 486.838 366.47 487.038 366.47C487.238 366.47 487.408 366.54 487.548 366.68C487.688 366.82 487.758 366.99 487.758 367.19C487.758 367.39 487.688 367.56 487.548 367.7ZM486.543 377V369.5H487.533V377H486.543ZM492.993 369.32C493.903 369.32 494.618 369.6 495.138 370.16C495.668 370.71 495.933 371.455 495.933 372.395V377H494.943V372.395C494.943 371.725 494.763 371.205 494.403 370.835C494.053 370.465 493.553 370.28 492.903 370.28C492.183 370.28 491.598 370.51 491.148 370.97C490.698 371.42 490.473 372.12 490.473 373.07V377H489.483V369.5H490.473V370.67C491.033 369.77 491.873 369.32 492.993 369.32ZM504.148 369.5H505.138V376.7C505.138 377.78 504.768 378.63 504.028 379.25C503.288 379.87 502.403 380.18 501.373 380.18C499.613 380.18 498.428 379.57 497.818 378.35L498.688 377.855C499.138 378.765 500.033 379.22 501.373 379.22C502.233 379.22 502.908 378.99 503.398 378.53C503.898 378.08 504.148 377.47 504.148 376.7V375.53C503.458 376.63 502.448 377.18 501.118 377.18C500.048 377.18 499.133 376.8 498.373 376.04C497.623 375.28 497.248 374.35 497.248 373.25C497.248 372.15 497.623 371.22 498.373 370.46C499.133 369.7 500.048 369.32 501.118 369.32C502.448 369.32 503.458 369.87 504.148 370.97V369.5ZM499.093 375.365C499.663 375.935 500.363 376.22 501.193 376.22C502.023 376.22 502.723 375.935 503.293 375.365C503.863 374.785 504.148 374.08 504.148 373.25C504.148 372.42 503.863 371.72 503.293 371.15C502.723 370.57 502.023 370.28 501.193 370.28C500.363 370.28 499.663 370.57 499.093 371.15C498.523 371.72 498.238 372.42 498.238 373.25C498.238 374.08 498.523 374.785 499.093 375.365ZM507.084 377V366.05H508.074V377H507.084ZM513.49 369.32C514.6 369.32 515.495 369.715 516.175 370.505C516.865 371.285 517.21 372.21 517.21 373.28C517.21 373.39 517.2 373.545 517.18 373.745H510.595C510.695 374.505 511.015 375.11 511.555 375.56C512.105 376 512.78 376.22 513.58 376.22C514.15 376.22 514.64 376.105 515.05 375.875C515.47 375.635 515.785 375.325 515.995 374.945L516.865 375.455C516.535 375.985 516.085 376.405 515.515 376.715C514.945 377.025 514.295 377.18 513.565 377.18C512.385 377.18 511.425 376.81 510.685 376.07C509.945 375.33 509.575 374.39 509.575 373.25C509.575 372.13 509.94 371.195 510.67 370.445C511.4 369.695 512.34 369.32 513.49 369.32ZM513.49 370.28C512.71 370.28 512.055 370.515 511.525 370.985C511.005 371.445 510.695 372.045 510.595 372.785H516.19C516.09 371.995 515.785 371.38 515.275 370.94C514.765 370.5 514.17 370.28 513.49 370.28ZM526.134 366.5C527.074 366.5 527.859 366.815 528.489 367.445C529.119 368.075 529.434 368.86 529.434 369.8C529.434 370.74 529.119 371.525 528.489 372.155C527.859 372.785 527.074 373.1 526.134 373.1H523.434V377H522.384V366.5H526.134ZM526.134 372.11C526.784 372.11 527.319 371.895 527.739 371.465C528.169 371.025 528.384 370.47 528.384 369.8C528.384 369.13 528.169 368.58 527.739 368.15C527.319 367.71 526.784 367.49 526.134 367.49H523.434V372.11H526.134ZM536.781 369.5H537.771V377H536.781V375.53C536.091 376.63 535.081 377.18 533.751 377.18C532.681 377.18 531.766 376.8 531.006 376.04C530.256 375.28 529.881 374.35 529.881 373.25C529.881 372.15 530.256 371.22 531.006 370.46C531.766 369.7 532.681 369.32 533.751 369.32C535.081 369.32 536.091 369.87 536.781 370.97V369.5ZM531.726 375.365C532.296 375.935 532.996 376.22 533.826 376.22C534.656 376.22 535.356 375.935 535.926 375.365C536.496 374.785 536.781 374.08 536.781 373.25C536.781 372.42 536.496 371.72 535.926 371.15C535.356 370.57 534.656 370.28 533.826 370.28C532.996 370.28 532.296 370.57 531.726 371.15C531.156 371.72 530.871 372.42 530.871 373.25C530.871 374.08 531.156 374.785 531.726 375.365ZM546.168 369.5H547.158V376.7C547.158 377.78 546.788 378.63 546.048 379.25C545.308 379.87 544.423 380.18 543.393 380.18C541.633 380.18 540.448 379.57 539.838 378.35L540.708 377.855C541.158 378.765 542.053 379.22 543.393 379.22C544.253 379.22 544.928 378.99 545.418 378.53C545.918 378.08 546.168 377.47 546.168 376.7V375.53C545.478 376.63 544.468 377.18 543.138 377.18C542.068 377.18 541.153 376.8 540.393 376.04C539.643 375.28 539.268 374.35 539.268 373.25C539.268 372.15 539.643 371.22 540.393 370.46C541.153 369.7 542.068 369.32 543.138 369.32C544.468 369.32 545.478 369.87 546.168 370.97V369.5ZM541.113 375.365C541.683 375.935 542.383 376.22 543.213 376.22C544.043 376.22 544.743 375.935 545.313 375.365C545.883 374.785 546.168 374.08 546.168 373.25C546.168 372.42 545.883 371.72 545.313 371.15C544.743 370.57 544.043 370.28 543.213 370.28C542.383 370.28 541.683 370.57 541.113 371.15C540.543 371.72 540.258 372.42 540.258 373.25C540.258 374.08 540.543 374.785 541.113 375.365ZM552.569 369.32C553.679 369.32 554.574 369.715 555.254 370.505C555.944 371.285 556.289 372.21 556.289 373.28C556.289 373.39 556.279 373.545 556.259 373.745H549.674C549.774 374.505 550.094 375.11 550.634 375.56C551.184 376 551.859 376.22 552.659 376.22C553.229 376.22 553.719 376.105 554.129 375.875C554.549 375.635 554.864 375.325 555.074 374.945L555.944 375.455C555.614 375.985 555.164 376.405 554.594 376.715C554.024 377.025 553.374 377.18 552.644 377.18C551.464 377.18 550.504 376.81 549.764 376.07C549.024 375.33 548.654 374.39 548.654 373.25C548.654 372.13 549.019 371.195 549.749 370.445C550.479 369.695 551.419 369.32 552.569 369.32ZM552.569 370.28C551.789 370.28 551.134 370.515 550.604 370.985C550.084 371.445 549.774 372.045 549.674 372.785H555.269C555.169 371.995 554.864 371.38 554.354 370.94C553.844 370.5 553.249 370.28 552.569 370.28ZM563.758 377L560.713 366.5H561.823L564.418 375.575L567.148 366.5H568.378L571.108 375.575L573.703 366.5H574.813L571.768 377H570.508L567.763 367.88L565.018 377H563.758ZM578.735 369.32C579.845 369.32 580.74 369.715 581.42 370.505C582.11 371.285 582.455 372.21 582.455 373.28C582.455 373.39 582.445 373.545 582.425 373.745H575.84C575.94 374.505 576.26 375.11 576.8 375.56C577.35 376 578.025 376.22 578.825 376.22C579.395 376.22 579.885 376.105 580.295 375.875C580.715 375.635 581.03 375.325 581.24 374.945L582.11 375.455C581.78 375.985 581.33 376.405 580.76 376.715C580.19 377.025 579.54 377.18 578.81 377.18C577.63 377.18 576.67 376.81 575.93 376.07C575.19 375.33 574.82 374.39 574.82 373.25C574.82 372.13 575.185 371.195 575.915 370.445C576.645 369.695 577.585 369.32 578.735 369.32ZM578.735 370.28C577.955 370.28 577.3 370.515 576.77 370.985C576.25 371.445 575.94 372.045 575.84 372.785H581.435C581.335 371.995 581.03 371.38 580.52 370.94C580.01 370.5 579.415 370.28 578.735 370.28ZM587.9 369.32C588.97 369.32 589.88 369.7 590.63 370.46C591.39 371.22 591.77 372.15 591.77 373.25C591.77 374.35 591.39 375.28 590.63 376.04C589.88 376.8 588.97 377.18 587.9 377.18C586.57 377.18 585.56 376.63 584.87 375.53V377H583.88V366.5H584.87V370.97C585.56 369.87 586.57 369.32 587.9 369.32ZM585.725 375.365C586.295 375.935 586.995 376.22 587.825 376.22C588.655 376.22 589.355 375.935 589.925 375.365C590.495 374.785 590.78 374.08 590.78 373.25C590.78 372.42 590.495 371.72 589.925 371.15C589.355 370.57 588.655 370.28 587.825 370.28C586.995 370.28 586.295 370.57 585.725 371.15C585.155 371.72 584.87 372.42 584.87 373.25C584.87 374.08 585.155 374.785 585.725 375.365ZM593.899 371.465C593.899 371.805 594.049 372.075 594.349 372.275C594.649 372.475 595.014 372.63 595.444 372.74C595.874 372.85 596.304 372.975 596.734 373.115C597.164 373.245 597.529 373.47 597.829 373.79C598.129 374.1 598.279 374.51 598.279 375.02C598.279 375.66 598.024 376.18 597.514 376.58C597.014 376.98 596.364 377.18 595.564 377.18C594.844 377.18 594.229 377.02 593.719 376.7C593.219 376.38 592.869 375.965 592.669 375.455L593.509 374.96C593.649 375.35 593.899 375.66 594.259 375.89C594.629 376.11 595.064 376.22 595.564 376.22C596.054 376.22 596.464 376.125 596.794 375.935C597.124 375.735 597.289 375.43 597.289 375.02C597.289 374.68 597.139 374.41 596.839 374.21C596.539 374.01 596.174 373.855 595.744 373.745C595.314 373.635 594.884 373.515 594.454 373.385C594.024 373.245 593.659 373.02 593.359 372.71C593.059 372.39 592.909 371.975 592.909 371.465C592.909 370.855 593.149 370.345 593.629 369.935C594.119 369.525 594.734 369.32 595.474 369.32C596.084 369.32 596.619 369.46 597.079 369.74C597.539 370.01 597.879 370.38 598.099 370.85L597.274 371.33C596.984 370.63 596.384 370.28 595.474 370.28C595.044 370.28 594.674 370.385 594.364 370.595C594.054 370.795 593.899 371.085 593.899 371.465ZM600.713 367.7C600.573 367.84 600.403 367.91 600.203 367.91C600.003 367.91 599.833 367.84 599.693 367.7C599.553 367.56 599.483 367.39 599.483 367.19C599.483 366.99 599.553 366.82 599.693 366.68C599.833 366.54 600.003 366.47 600.203 366.47C600.403 366.47 600.573 366.54 600.713 366.68C600.853 366.82 600.923 366.99 600.923 367.19C600.923 367.39 600.853 367.56 600.713 367.7ZM599.708 377V369.5H600.698V377H599.708ZM606.623 370.46H604.463V375.005C604.463 375.415 604.543 375.71 604.703 375.89C604.863 376.06 605.103 376.15 605.423 376.16C605.743 376.16 606.143 376.15 606.623 376.13V377C605.573 377.16 604.783 377.085 604.253 376.775C603.733 376.465 603.473 375.875 603.473 375.005V370.46H601.898V369.5H603.473V367.7L604.463 367.4V369.5H606.623V370.46ZM611.134 369.32C612.244 369.32 613.139 369.715 613.819 370.505C614.509 371.285 614.854 372.21 614.854 373.28C614.854 373.39 614.844 373.545 614.824 373.745H608.239C608.339 374.505 608.659 375.11 609.199 375.56C609.749 376 610.424 376.22 611.224 376.22C611.794 376.22 612.284 376.105 612.694 375.875C613.114 375.635 613.429 375.325 613.639 374.945L614.509 375.455C614.179 375.985 613.729 376.405 613.159 376.715C612.589 377.025 611.939 377.18 611.209 377.18C610.029 377.18 609.069 376.81 608.329 376.07C607.589 375.33 607.219 374.39 607.219 373.25C607.219 372.13 607.584 371.195 608.314 370.445C609.044 369.695 609.984 369.32 611.134 369.32ZM611.134 370.28C610.354 370.28 609.699 370.515 609.169 370.985C608.649 371.445 608.339 372.045 608.239 372.785H613.834C613.734 371.995 613.429 371.38 612.919 370.94C612.409 370.5 611.814 370.28 611.134 370.28Z" fill="#607D8B"></path><path d="M1.61719 21C1.61719 9.40202 11.0192 0 22.6172 0H672.617C684.215 0 693.617 9.40202 693.617 21V49H1.61719V21Z" fill="#E2E7F0"></path><path d="M672.921 0.380859H21.8204C10.3216 0.380859 1 9.70247 1 21.2013V381.799C1 393.297 10.3216 402.619 21.8204 402.619H672.921C684.419 402.619 693.741 393.297 693.741 381.799V21.2013C693.741 9.70247 684.419 0.380859 672.921 0.380859Z" stroke="#BFC6D8" stroke-width="0.761815" stroke-miterlimit="10"></path><path d="M66.8478 33.055C71.8336 33.055 75.8753 29.0133 75.8753 24.0275C75.8753 19.0418 71.8336 15 66.8478 15C61.8621 15 57.8203 19.0418 57.8203 24.0275C57.8203 29.0133 61.8621 33.055 66.8478 33.055Z" fill="#3357A7"></path><path d="M98.5627 33.055C103.548 33.055 107.59 29.0133 107.59 24.0275C107.59 19.0418 103.548 15 98.5627 15C93.5769 15 89.5352 19.0418 89.5352 24.0275C89.5352 29.0133 93.5769 33.055 98.5627 33.055Z" fill="#3357A7"></path><path d="M130.277 33.055C135.263 33.055 139.305 29.0133 139.305 24.0275C139.305 19.0418 135.263 15 130.277 15C125.292 15 121.25 19.0418 121.25 24.0275C121.25 29.0133 125.292 33.055 130.277 33.055Z" fill="#3357A7"></path><path d="M610.868 80H477.617V346.678H610.868V80Z" stroke="#BCC4D2" stroke-miterlimit="10"></path><path d="M528.115 86.127H487.312V99.1458H528.115V86.127Z" stroke="#BCC4D2" stroke-miterlimit="10"></path><path d="M554.564 111.872H487.312V184.151H554.564V111.872Z" stroke="#BCC4D2" stroke-miterlimit="10"></path><path d="M521.436 239.028H487.312V294.402H521.436V239.028Z" stroke="#BCC4D2" stroke-miterlimit="10"></path><path d="M561.303 239.028H527.18V294.402H561.303V239.028Z" stroke="#BCC4D2" stroke-miterlimit="10"></path><path d="M601.17 239.028H567.047V294.402H601.17V239.028Z" stroke="#BCC4D2" stroke-miterlimit="10"></path><path d="M601.175 89.1387H546.203V96.1333H601.175V89.1387Z" stroke="#BCC4D2" stroke-miterlimit="10"></path><path d="M571.729 216.359H516.758V223.354H571.729V216.359Z" stroke="#BCC4D2" stroke-miterlimit="10"></path><path d="M571.729 314.706H516.758V321.701H571.729V314.706Z" stroke="#BCC4D2" stroke-miterlimit="10"></path><path d="M477.617 104.003H610.232" stroke="#BCC4D2" stroke-miterlimit="10"></path><path d="M477.617 192.018H610.232" stroke="#BCC4D2" stroke-miterlimit="10"></path><path d="M477.617 230.359H610.232" stroke="#BCC4D2" stroke-miterlimit="10"></path><path d="M477.617 303.071H610.232" stroke="#BCC4D2" stroke-miterlimit="10"></path><path d="M496.602 200.687H591.248" stroke="#BCC4D2" stroke-miterlimit="10"></path><path d="M496.602 335.712H591.248" stroke="#BCC4D2" stroke-miterlimit="10"></path><path d="M510.203 209.355H577.647" stroke="#BCC4D2" stroke-miterlimit="10"></path><path d="M510.203 328.706H577.647" stroke="#BCC4D2" stroke-miterlimit="10"></path><path d="M558.703 126.151H601.172" stroke="#BCC4D2" stroke-miterlimit="10"></path><path d="M558.703 134.312H601.172" stroke="#BCC4D2" stroke-miterlimit="10"></path><path d="M558.703 142.474H601.172" stroke="#BCC4D2" stroke-miterlimit="10"></path><path d="M558.703 150.633H601.172" stroke="#BCC4D2" stroke-miterlimit="10"></path><path d="M558.703 158.793H579.939" stroke="#BCC4D2" stroke-miterlimit="10"></path><path d="M326.185 265.449H205.129V347H326.185V265.449Z" stroke="#BCC4D2" stroke-miterlimit="10"></path><path d="M462.021 265.449H340.965V347H462.021V265.449Z" stroke="#BCC4D2" stroke-miterlimit="10"></path><path d="M244.938 275.148H213.938V325.454H244.938V275.148Z" stroke="#BCC4D2" stroke-miterlimit="10"></path><path d="M281.156 275.148H250.156V325.454H281.156V275.148Z" stroke="#BCC4D2" stroke-miterlimit="10"></path><path d="M317.375 275.148H286.375V325.454H317.375V275.148Z" stroke="#BCC4D2" stroke-miterlimit="10"></path><path d="M222.664 333.33H308.647" stroke="#BCC4D2" stroke-miterlimit="10"></path><path d="M235.023 340.115H296.295" stroke="#BCC4D2" stroke-miterlimit="10"></path><path d="M376.235 315.766H426.176V309.411H376.235V315.766Z" stroke="#BCC4D2" stroke-miterlimit="10"></path><path d="M444.487 296.682H358.504" stroke="#BCC4D2" stroke-miterlimit="10"></path><path d="M432.131 303.047H370.859" stroke="#BCC4D2" stroke-miterlimit="10"></path><path d="M196.673 265.45H75.6172V347H196.673V265.45Z" stroke="#BCC4D2" stroke-miterlimit="10"></path><path d="M113.637 284.878H92.1016V302.536H113.637V284.878Z" stroke="#BCC4D2" stroke-miterlimit="10"></path><path d="M118.844 286.294H180.183" stroke="#BCC4D2" stroke-miterlimit="10"></path><path d="M118.844 293.707H180.183" stroke="#BCC4D2" stroke-miterlimit="10"></path><path d="M118.844 301.122H151.353" stroke="#BCC4D2" stroke-miterlimit="10"></path><path d="M158.648 331.035H180.184V313.377H158.648V331.035Z" stroke="#BCC4D2" stroke-miterlimit="10"></path><path d="M153.441 329.619H92.1016" stroke="#BCC4D2" stroke-miterlimit="10"></path><path d="M153.441 322.206H92.1016" stroke="#BCC4D2" stroke-miterlimit="10"></path><path d="M153.437 314.793H120.93" stroke="#BCC4D2" stroke-miterlimit="10"></path><path d="M196.673 148H75.6172V248.354H196.673V148Z" stroke="#BCC4D2" stroke-miterlimit="10"></path><path d="M269.617 248H196.617" stroke="#BCC4D2"></path><path d="M121.78 153.566H84.7109V165.394H121.78V153.566Z" stroke="#BCC4D2" stroke-miterlimit="10"></path><path d="M188.152 156.303H138.211V162.657H188.152V156.303Z" stroke="#BCC4D2" stroke-miterlimit="10"></path><path d="M75.9062 169.806H196.386" stroke="#BCC4D2" stroke-miterlimit="10"></path><path d="M145.523 176.955H84.4258V242.619H145.523V176.955Z" stroke="#BCC4D2" stroke-miterlimit="10"></path><path d="M149.281 189.928H187.863" stroke="#BCC4D2" stroke-miterlimit="10"></path><path d="M149.281 197.343H187.863" stroke="#BCC4D2" stroke-miterlimit="10"></path><path d="M149.281 204.756H187.863" stroke="#BCC4D2" stroke-miterlimit="10"></path><path d="M149.281 212.169H187.863" stroke="#BCC4D2" stroke-miterlimit="10"></path><path d="M149.281 219.584H168.571" stroke="#BCC4D2" stroke-miterlimit="10"></path><path d="M405.197 265.468V257.642H135.102V265.517" stroke="#BCC4D2" stroke-miterlimit="10"></path><path d="M270.148 248.354V265.45" stroke="#BCC4D2" stroke-miterlimit="10"></path><path d="M76.9172 82H85.8172V84L80.8972 96H78.4772L83.3172 84.2H76.9172V82ZM86.5219 82H95.4219V84L90.5019 96H88.0819L92.9219 84.2H86.5219V82ZM96.1266 82H105.027V84L100.107 96H97.6866L102.527 84.2H96.1266V82ZM115.071 88.74C115.685 89.06 116.165 89.5 116.511 90.06C116.858 90.62 117.031 91.2667 117.031 92C117.031 93.1467 116.625 94.1 115.811 94.86C114.998 95.62 114.005 96 112.831 96H106.831V82H112.391C113.538 82 114.505 82.3733 115.291 83.12C116.091 83.8533 116.491 84.7733 116.491 85.88C116.491 87.0933 116.018 88.0467 115.071 88.74ZM112.391 84.16H109.131V87.84H112.391C112.898 87.84 113.325 87.6667 113.671 87.32C114.018 86.96 114.191 86.52 114.191 86C114.191 85.48 114.018 85.0467 113.671 84.7C113.325 84.34 112.898 84.16 112.391 84.16ZM112.831 93.84C113.365 93.84 113.811 93.6533 114.171 93.28C114.545 92.8933 114.731 92.4267 114.731 91.88C114.731 91.3333 114.545 90.8733 114.171 90.5C113.811 90.1133 113.365 89.92 112.831 89.92H109.131V93.84H112.831ZM125.634 86H127.794V96H125.634V94.72C124.98 95.7467 123.947 96.26 122.534 96.26C121.387 96.26 120.46 95.8933 119.754 95.16C119.047 94.4267 118.694 93.42 118.694 92.14V86H120.854V91.92C120.854 92.6667 121.054 93.24 121.454 93.64C121.854 94.04 122.4 94.24 123.094 94.24C123.854 94.24 124.467 94.0067 124.934 93.54C125.4 93.06 125.634 92.3333 125.634 91.36V86ZM132.159 84.1C131.893 84.3667 131.573 84.5 131.199 84.5C130.826 84.5 130.499 84.3667 130.219 84.1C129.953 83.82 129.819 83.4933 129.819 83.12C129.819 82.7467 129.953 82.4267 130.219 82.16C130.486 81.88 130.813 81.74 131.199 81.74C131.586 81.74 131.913 81.88 132.179 82.16C132.446 82.4267 132.579 82.7467 132.579 83.12C132.579 83.4933 132.439 83.82 132.159 84.1ZM130.119 96V86H132.279V96H130.119ZM134.587 96V81.4H136.747V96H134.587ZM146.975 82H149.135V96H146.975V94.56C146.162 95.6933 144.995 96.26 143.475 96.26C142.102 96.26 140.929 95.7533 139.955 94.74C138.982 93.7133 138.495 92.4667 138.495 91C138.495 89.52 138.982 88.2733 139.955 87.26C140.929 86.2467 142.102 85.74 143.475 85.74C144.995 85.74 146.162 86.3 146.975 87.42V82ZM141.555 93.3C142.155 93.9 142.909 94.2 143.815 94.2C144.722 94.2 145.475 93.9 146.075 93.3C146.675 92.6867 146.975 91.92 146.975 91C146.975 90.08 146.675 89.32 146.075 88.72C145.475 88.1067 144.722 87.8 143.815 87.8C142.909 87.8 142.155 88.1067 141.555 88.72C140.955 89.32 140.655 90.08 140.655 91C140.655 91.92 140.955 92.6867 141.555 93.3ZM153.153 91.92C153.313 92.68 153.68 93.2667 154.253 93.68C154.826 94.08 155.526 94.28 156.353 94.28C157.5 94.28 158.36 93.8667 158.933 93.04L160.713 94.08C159.726 95.5333 158.266 96.26 156.333 96.26C154.706 96.26 153.393 95.7667 152.393 94.78C151.393 93.78 150.893 92.52 150.893 91C150.893 89.5067 151.386 88.26 152.373 87.26C153.36 86.2467 154.626 85.74 156.173 85.74C157.64 85.74 158.84 86.2533 159.773 87.28C160.72 88.3067 161.193 89.5533 161.193 91.02C161.193 91.2467 161.166 91.5467 161.113 91.92H153.153ZM153.133 90.16H159.013C158.866 89.3467 158.526 88.7333 157.993 88.32C157.473 87.9067 156.86 87.7 156.153 87.7C155.353 87.7 154.686 87.92 154.153 88.36C153.62 88.8 153.28 89.4 153.133 90.16ZM165.054 87.68C165.6 86.44 166.627 85.82 168.134 85.82V88.16C167.307 88.1067 166.587 88.3067 165.974 88.76C165.36 89.2 165.054 89.9333 165.054 90.96V96H162.894V86H165.054V87.68ZM183.59 96L182.61 93.18H176.65L175.67 96H173.17L178.25 82H181.01L186.07 96H183.59ZM177.41 91.02H181.85L179.63 84.7L177.41 91.02ZM187.375 82H189.675V96H187.375V82Z" fill="#333440"></path></svg>